<?xml version="1.0" encoding="UTF-8"?>
<svg width="20px" height="20px" viewBox="0 0 20 20" version="1.1" xmlns="http://www.w3.org/2000/svg" xmlns:xlink="http://www.w3.org/1999/xlink">
    <!-- Generator: Sketch 41 (35326) - http://www.bohemiancoding.com/sketch -->
    <title>Facebook</title>
    <desc>Created with Sketch.</desc>
    <defs></defs>
    <g id="about" stroke="none" stroke-width="1" fill="none" fill-rule="evenodd">
        <g id="About" transform="translate(-240.000000, -1032.000000)" fill="#005477">
            <path d="M250.682648,1052 L241.103847,1052 C240.49403,1052 240,1051.50566 240,1050.89608 L240,1033.10384 C240,1032.4941 240.494108,1032 241.103847,1032 L258.896231,1032 C259.505815,1032 260,1032.4941 260,1033.10384 L260,1050.89608 C260,1051.50574 259.505737,1052 258.896231,1052 L253.79971,1052 L253.79971,1044.2549 L256.399384,1044.2549 L256.788648,1041.23649 L253.79971,1041.23649 L253.79971,1039.30943 C253.79971,1038.43554 254.04238,1037.84 255.295537,1037.84 L256.89388,1037.83931 L256.89388,1035.13962 C256.617453,1035.10284 255.66866,1035.02065 254.564813,1035.02065 C252.260347,1035.02065 250.682648,1036.4273 250.682648,1039.0105 L250.682648,1041.23649 L248.076301,1041.23649 L248.076301,1044.2549 L250.682648,1044.2549 L250.682648,1052 L250.682648,1052 L250.682648,1052 Z" id="Facebook"></path>
        </g>
    </g>
</svg>