<?xml version="1.0" encoding="UTF-8"?>
<svg width="22px" height="22px" viewBox="0 0 22 22" version="1.1" xmlns="http://www.w3.org/2000/svg" xmlns:xlink="http://www.w3.org/1999/xlink">
    <!-- Generator: Sketch 41.2 (35397) - http://www.bohemiancoding.com/sketch -->
    <title>Github</title>
    <desc>Created with Sketch.</desc>
    <defs></defs>
    <g id="about" stroke="none" stroke-width="1" fill="none" fill-rule="evenodd">
        <g id="About" transform="translate(-275.000000, -1031.000000)" fill="#005477">
            <path d="M285.999313,1031 C279.92525,1031 275,1035.94408 275,1042.0443 C275,1046.92281 278.1515,1051.06209 282.523312,1052.52261 C283.073312,1052.62407 283.274063,1052.2831 283.274063,1051.99044 C283.274063,1051.72816 283.264438,1051.03379 283.258938,1050.11234 C280.198875,1050.77979 279.553313,1048.63181 279.553313,1048.63181 C279.0535,1047.35627 278.332313,1047.01668 278.332313,1047.01668 C277.333375,1046.33128 278.407938,1046.34509 278.407938,1046.34509 C279.511375,1046.42308 280.092312,1047.48327 280.092312,1047.48327 C281.074063,1049.17087 282.667,1048.68357 283.294,1048.40058 C283.393687,1047.68689 283.678313,1047.20028 283.9925,1046.92419 C281.549812,1046.64534 278.982,1045.69835 278.982,1041.46658 C278.982,1040.26075 279.410312,1039.27511 280.114312,1038.50275 C280.000875,1038.22321 279.623437,1037.1009 280.221563,1035.58033 C280.221563,1035.58033 281.145562,1035.28354 283.246562,1036.7123 C284.1245,1036.46727 285.065,1036.3451 286.000687,1036.34027 C286.935,1036.3451 287.876187,1036.46727 288.754813,1036.7123 C290.854438,1035.28354 291.776375,1035.58033 291.776375,1035.58033 C292.376563,1037.1009 291.999125,1038.22321 291.885688,1038.50275 C292.591063,1039.27511 293.016625,1040.26075 293.016625,1041.46658 C293.016625,1045.7087 290.444687,1046.64258 287.994438,1046.91591 C288.389062,1047.25688 288.741062,1047.93054 288.741062,1048.96104 C288.741062,1050.43743 288.727313,1051.62807 288.727313,1051.99044 C288.727313,1052.28586 288.925313,1052.62959 289.483563,1052.52122 C293.85125,1051.05795 297,1046.92143 297,1042.0443 C297,1035.94408 292.07475,1031 285.999313,1031" id="Github"></path>
        </g>
    </g>
</svg>