<?xml version="1.0" encoding="UTF-8"?>
<svg width="22px" height="20px" viewBox="0 0 22 20" version="1.1" xmlns="http://www.w3.org/2000/svg" xmlns:xlink="http://www.w3.org/1999/xlink">
    <!-- Generator: Sketch 41 (35326) - http://www.bohemiancoding.com/sketch -->
    <title>LinkedIn</title>
    <desc>Created with Sketch.</desc>
    <defs></defs>
    <g id="about" stroke="none" stroke-width="1" fill="none" fill-rule="evenodd">
        <g id="About" transform="translate(-201.000000, -1032.000000)" fill="#005477">
            <g id="Group" transform="translate(201.000000, 498.000000)">
                <path d="M22,554 L17.1377,554 L17.1377,546.9692 C17.1377,545.128898 16.3771165,543.872575 14.7046095,543.872575 C13.4253295,543.872575 12.7138995,544.720369 12.382761,545.537427 C12.258584,545.830698 12.277987,546.239227 12.277987,546.647756 L12.277987,554 L7.4609595,554 C7.4609595,554 7.523048,541.545624 7.4609595,540.413524 L12.277987,540.413524 L12.277987,542.545816 C12.562559,541.613498 14.1018345,540.282897 16.558208,540.282897 C19.605715,540.282897 22,542.237178 22,546.445412 L22,554 L22,554 L22,554 Z M2.589605,538.714093 L2.5585605,538.714093 C1.00635,538.714093 0,537.675482 0,536.358968 C0,535.01684 1.0361005,534 2.6193555,534 C4.201317,534 5.1740355,535.014279 5.20508,536.355126 C5.20508,537.67164 4.201317,538.714093 2.589605,538.714093 L2.589605,538.714093 L2.589605,538.714093 L2.589605,538.714093 Z M0.5549155,540.413523 L4.8428975,540.413523 L4.8428975,554 L0.5549155,554 L0.5549155,540.413523 L0.5549155,540.413523 L0.5549155,540.413523 Z" id="LinkedIn"></path>
            </g>
        </g>
    </g>
</svg>