<?xml version="1.0" encoding="UTF-8"?>
<svg width="24px" height="20px" viewBox="0 0 24 20" version="1.1" xmlns="http://www.w3.org/2000/svg" xmlns:xlink="http://www.w3.org/1999/xlink">
    <!-- Generator: Sketch 41 (35326) - http://www.bohemiancoding.com/sketch -->
    <title>Twitter</title>
    <desc>Created with Sketch.</desc>
    <defs></defs>
    <g id="about" stroke="none" stroke-width="1" fill="none" fill-rule="evenodd">
        <g id="About" transform="translate(-161.000000, -1032.000000)" fill="#005477">
            <path d="M185,1034.36764 C184.118155,1034.76923 183.168691,1035.04081 182.172742,1035.16215 C183.189822,1034.5381 183.970241,1033.54857 184.337911,1032.36981 C183.385631,1032.94763 182.333334,1033.368 181.209192,1033.59335 C180.313259,1032.6125 179.032752,1032 177.615601,1032 C174.898222,1032 172.693608,1034.26074 172.693608,1037.04875 C172.693608,1037.44457 172.735869,1037.82882 172.820391,1038.19863 C168.728121,1037.98772 165.100722,1035.97978 162.670716,1032.92163 C162.246699,1033.66992 162.004402,1034.5381 162.004402,1035.46262 C162.004402,1037.21343 162.87357,1038.75912 164.194929,1039.66486 C163.389153,1039.6403 162.628456,1039.41062 161.96355,1039.03503 L161.96355,1039.09715 C161.96355,1041.54424 163.661032,1043.58541 165.91495,1044.04767 C165.502201,1044.16612 165.066913,1044.22535 164.617538,1044.22535 C164.300581,1044.22535 163.990668,1044.19502 163.690615,1044.13579 C164.317486,1046.14084 166.134707,1047.6013 168.290016,1047.6403 C166.605212,1048.9953 164.480895,1049.80282 162.174855,1049.80282 C161.777602,1049.80282 161.384575,1049.7797 161,1049.73348 C163.179257,1051.1636 165.768445,1052 168.547808,1052 C177.60574,1052 182.557317,1044.30769 182.557317,1037.63525 C182.557317,1037.41567 182.55309,1037.1961 182.544638,1036.98086 C183.506779,1036.26869 184.342138,1035.38028 185,1034.36764" id="Twitter"></path>
        </g>
    </g>
</svg>