<?xml version="1.0" encoding="UTF-8"?>
<svg width="47px" height="24px" viewBox="0 0 47 24" version="1.1" xmlns="http://www.w3.org/2000/svg" xmlns:xlink="http://www.w3.org/1999/xlink">
    <!-- Generator: Sketch 41 (35326) - http://www.bohemiancoding.com/sketch -->
    <title>Group 15 Copy</title>
    <desc>Created with Sketch.</desc>
    <defs></defs>
    <g id="Symbols" stroke="none" stroke-width="1" fill="none" fill-rule="evenodd" opacity="0.849298007">
        <g id="footer" transform="translate(-598.000000, -22.000000)" fill="#005477">
            <g id="Group-15-Copy" transform="translate(598.000000, 22.000000)">
                <path d="M34.6385932,0 L31.3796845,4.70533034 L27.7464615,9.95233778 L24.1516998,15.1318631 L18,24 L47,24 C47,14.0762384 42.1171014,5.30500647 34.6385932,0" id="Fill-1"></path>
                <path d="M13,24 L2,24 C2,21.7848484 2.64395105,19.7264745 3.74978929,18 L13,24 Z" id="Fill-2"></path>
                <path d="M16.1013979,1.77635684e-15 C15.3915857,1.77635684e-15 14.6908321,0.029236466 14,0.0978131768 L14.0493914,0.619125163 L14.6125393,6.55756735 L15.1646873,12.3878776 L15.2231374,12.9582037 L15.2231374,13.0076477 C15.2429802,13.2234816 15.2623917,13.4497203 15.2830972,13.6661991 L16.2691991,24 L22.5822358,14.9936636 L26.2712751,9.73337848 L30,4.40460259 C26.0734939,1.63165277 21.2801585,1.77635684e-15 16.1013979,1.77635684e-15" id="Fill-3"></path>
                <path d="M14.0083132,13.9283052 C13.9872735,13.7171032 13.967969,13.4969754 13.9477969,13.2866115 C13.9378193,13.2671257 13.9378193,13.2574875 13.9378193,13.2384206 C13.9287093,13.0467045 13.9091879,12.8648362 13.8892327,12.6823392 L13.3337406,7 C7.7382803,7.4502709 2.88764787,10.421137 0,14.7330937 L5.45644633,18.1062493 L15,24 L14.0083132,13.9283052 Z" id="Fill-6"></path>
            </g>
        </g>
    </g>
</svg>