<svg width="147" height="78" viewBox="0 0 147 78" xmlns="http://www.w3.org/2000/svg"><title>Page 1</title><g fill="none" fill-rule="evenodd"><path d="M57.923 54H31c0-5.17 1.576-9.972 4.283-14l22.64 14z" fill="#0BA4A8"/><path d="M52 .22L57.058 54 88 10C79.25 3.76 68.226 0 56.684 0" fill="#005477"/><path d="M55 29l.27 2h-.046c-.042-.69-.13-1.344-.224-2" fill="#231F1F"/><path d="M55.046 29v.23C55 29.137 55 29.09 55 29h.046z" fill="#231F1F"/><path d="M54.918 30.894c-.046-.484-.088-.99-.133-1.472-.022-.044-.022-.067-.022-.11-.02-.44-.063-.857-.107-1.276L53.434 15c-12.31 1.033-22.98 7.848-29.334 17.74l12.004 7.74L57.1 54l-2.182-23.106z" fill="#00798C"/><path d="M94.867 0L87.45 10.587l-8.268 11.806L71 34.047 57 54h66c0-22.328-11.113-42.064-28.133-54" fill="#19345E"/><path d="M6.343 69.89c-.27-1.022-1.123-1.5-1.914-1.5-.792 0-1.25.412-1.25.873 0 .758 1.107 1.04 2.45 1.55C7.277 71.44 9 72.414 9 74.39 9 76.5 7.26 78 4.682 78 2.372 78 .727 76.665 0 74.506l2.547-.71c.285.874 1.075 1.747 2.246 1.747.948 0 1.392-.46 1.392-1.02 0-.924-1.297-1.155-2.88-1.78-1.327-.53-2.862-1.288-2.862-3.315C.443 67.63 2.183 66 4.587 66c2.12 0 3.796 1.35 4.318 3.165l-2.562.724zM27 75.308V78h-8V66h7.907v2.692H21.61v1.97h4.147v2.52H21.61v2.126M69 66l-4.49 12h-3.02L57 66h3.07l2.254 6.617c.45 1.337.65 2.194.668 2.194h.017c.015 0 .216-.856.666-2.193L65.93 66H69zM86 75.308V78h-8V66h7.908v2.692H80.61v1.97h4.148v2.52H80.61v2.126M107 66v12h-2.516l-2.277-3.343c-1.02-1.51-2.516-3.788-2.532-3.788h-.017c-.014 0 .017 1.85.017 4.472V78H97V66h2.516l2.373 3.43c.715 1.028 2.42 3.616 2.435 3.616h.016c.017 0-.015-2.126-.015-4.303V66H107zM126.095 69.807c-.507-.66-1.46-1.07-2.332-1.07-1.842 0-2.985 1.367-2.985 3.263 0 1.994 1.254 3.23 2.985 3.23 1.062 0 2.078-.56 2.54-1.35l2.697.725c-.92 2.044-2.905 3.395-5.237 3.395-3.19 0-5.763-2.522-5.763-6s2.572-6 5.763-6c2.19 0 4.063 1.22 5.046 3.066l-2.715.74zM147 75.308V78h-8V66h7.908v2.692h-5.298v1.97h4.148v2.52h-4.148v2.126M49 71.954C49 68.504 46.31 66 42.992 66S37 68.503 37 71.954c0 2.773 1.734 4.917 4.126 5.653.59.153 1.744.36 3.042.142l-1.926-2.64c-1.438-.31-2.354-1.512-2.354-3.156 0-1.93 1.238-3.24 3.104-3.24 1.88 0 3.12 1.31 3.12 3.24 0 .784-.214 1.462-.59 1.995l-.477-.645h-3.33L45.156 78h3.362l-1.312-1.775C48.31 75.172 49 73.69 49 71.955" fill="#E7E7E7"/></g></svg>